<svg width="166" height="168" viewBox="0 0 166 168" fill="none" xmlns="http://www.w3.org/2000/svg">
<g id="Component 1">
<g id="zero">
<path d="M5.54149 16.7534C4.34875 16.7534 3.41966 16.2323 2.75423 15.1902C2.10136 14.1481 1.77493 12.6666 1.77493 10.7457C1.77493 8.87495 2.10136 7.39971 2.75423 6.31996C3.41966 5.24021 4.34875 4.70034 5.54149 4.70034C6.73424 4.70034 7.65705 5.24021 8.30992 6.31996C8.97534 7.39971 9.30806 8.87495 9.30806 10.7457C9.30806 12.6666 8.97534 14.1481 8.30992 15.1902C7.65705 16.2323 6.73424 16.7534 5.54149 16.7534ZM3.33805 10.7457C3.33805 11.4613 3.38199 12.1016 3.46988 12.6666L7.34944 7.80776C7.17367 7.24277 6.92884 6.80962 6.61496 6.50829C6.31364 6.19441 5.95581 6.03747 5.54149 6.03747C4.8384 6.03747 4.29225 6.46435 3.90304 7.3181C3.52638 8.1593 3.33805 9.30183 3.33805 10.7457ZM5.54149 15.4539C6.24458 15.4539 6.78446 15.0458 7.16112 14.2298C7.55033 13.4137 7.74493 12.2523 7.74493 10.7457C7.74493 10.1179 7.70727 9.54666 7.63194 9.03189L3.75237 13.8343C4.12903 14.914 4.7254 15.4539 5.54149 15.4539Z" fill="#EA638C"/>
<path d="M14.8261 16.5462V6.65895L12.5285 7.3746L12.1706 6.41413L15.2592 4.7945H16.408V16.5462H14.8261Z" fill="#EA638C"/>
<path d="M25.1276 16.7534C23.9349 16.7534 23.0058 16.2323 22.3404 15.1902C21.6875 14.1481 21.3611 12.6666 21.3611 10.7457C21.3611 8.87495 21.6875 7.39971 22.3404 6.31996C23.0058 5.24021 23.9349 4.70034 25.1276 4.70034C26.3204 4.70034 27.2432 5.24021 27.8961 6.31996C28.5615 7.39971 28.8942 8.87495 28.8942 10.7457C28.8942 12.6666 28.5615 14.1481 27.8961 15.1902C27.2432 16.2323 26.3204 16.7534 25.1276 16.7534ZM22.9242 10.7457C22.9242 11.4613 22.9681 12.1016 23.056 12.6666L26.9356 7.80776C26.7598 7.24277 26.515 6.80962 26.2011 6.50829C25.8998 6.19441 25.542 6.03747 25.1276 6.03747C24.4245 6.03747 23.8784 6.46435 23.4892 7.3181C23.1125 8.1593 22.9242 9.30183 22.9242 10.7457ZM25.1276 15.4539C25.8307 15.4539 26.3706 15.0458 26.7473 14.2298C27.1365 13.4137 27.3311 12.2523 27.3311 10.7457C27.3311 10.1179 27.2934 9.54666 27.2181 9.03189L23.3385 13.8343C23.7152 14.914 24.3115 15.4539 25.1276 15.4539Z" fill="#EA638C"/>
<path d="M34.9207 16.7534C33.728 16.7534 32.7989 16.2323 32.1334 15.1902C31.4806 14.1481 31.1541 12.6666 31.1541 10.7457C31.1541 8.87495 31.4806 7.39971 32.1334 6.31996C32.7989 5.24021 33.728 4.70034 34.9207 4.70034C36.1135 4.70034 37.0363 5.24021 37.6891 6.31996C38.3546 7.39971 38.6873 8.87495 38.6873 10.7457C38.6873 12.6666 38.3546 14.1481 37.6891 15.1902C37.0363 16.2323 36.1135 16.7534 34.9207 16.7534ZM32.7173 10.7457C32.7173 11.4613 32.7612 12.1016 32.8491 12.6666L36.7287 7.80776C36.5529 7.24277 36.3081 6.80962 35.9942 6.50829C35.6929 6.19441 35.335 6.03747 34.9207 6.03747C34.2176 6.03747 33.6715 6.46435 33.2823 7.3181C32.9056 8.1593 32.7173 9.30183 32.7173 10.7457ZM34.9207 15.4539C35.6238 15.4539 36.1637 15.0458 36.5403 14.2298C36.9295 13.4137 37.1241 12.2523 37.1241 10.7457C37.1241 10.1179 37.0865 9.54666 37.0112 9.03189L33.1316 13.8343C33.5082 14.914 34.1046 15.4539 34.9207 15.4539Z" fill="#EA638C"/>
<path d="M44.7138 16.7534C43.521 16.7534 42.5919 16.2323 41.9265 15.1902C41.2736 14.1481 40.9472 12.6666 40.9472 10.7457C40.9472 8.87495 41.2736 7.39971 41.9265 6.31996C42.5919 5.24021 43.521 4.70034 44.7138 4.70034C45.9065 4.70034 46.8293 5.24021 47.4822 6.31996C48.1476 7.39971 48.4803 8.87495 48.4803 10.7457C48.4803 12.6666 48.1476 14.1481 47.4822 15.1902C46.8293 16.2323 45.9065 16.7534 44.7138 16.7534ZM42.5103 10.7457C42.5103 11.4613 42.5543 12.1016 42.6422 12.6666L46.5217 7.80776C46.346 7.24277 46.1011 6.80962 45.7873 6.50829C45.4859 6.19441 45.1281 6.03747 44.7138 6.03747C44.0107 6.03747 43.4645 6.46435 43.0753 7.3181C42.6987 8.1593 42.5103 9.30183 42.5103 10.7457ZM44.7138 15.4539C45.4169 15.4539 45.9567 15.0458 46.3334 14.2298C46.7226 13.4137 46.9172 12.2523 46.9172 10.7457C46.9172 10.1179 46.8796 9.54666 46.8042 9.03189L42.9247 13.8343C43.3013 14.914 43.8977 15.4539 44.7138 15.4539Z" fill="#EA638C"/>
<path d="M54.5069 16.7534C53.3141 16.7534 52.385 16.2323 51.7196 15.1902C51.0667 14.1481 50.7403 12.6666 50.7403 10.7457C50.7403 8.87495 51.0667 7.39971 51.7196 6.31996C52.385 5.24021 53.3141 4.70034 54.5069 4.70034C55.6996 4.70034 56.6224 5.24021 57.2753 6.31996C57.9407 7.39971 58.2734 8.87495 58.2734 10.7457C58.2734 12.6666 57.9407 14.1481 57.2753 15.1902C56.6224 16.2323 55.6996 16.7534 54.5069 16.7534ZM52.3034 10.7457C52.3034 11.4613 52.3474 12.1016 52.4352 12.6666L56.3148 7.80776C56.139 7.24277 55.8942 6.80962 55.5803 6.50829C55.279 6.19441 54.9212 6.03747 54.5069 6.03747C53.8038 6.03747 53.2576 6.46435 52.8684 7.3181C52.4917 8.1593 52.3034 9.30183 52.3034 10.7457ZM54.5069 15.4539C55.2099 15.4539 55.7498 15.0458 56.1265 14.2298C56.5157 13.4137 56.7103 12.2523 56.7103 10.7457C56.7103 10.1179 56.6726 9.54666 56.5973 9.03189L52.7177 13.8343C53.0944 14.914 53.6908 15.4539 54.5069 15.4539Z" fill="#EA638C"/>
<path d="M63.7914 16.5462V6.65895L61.4938 7.3746L61.136 6.41413L64.2246 4.7945H65.3734V16.5462H63.7914Z" fill="#EA638C"/>
<path d="M73.5845 16.5462V6.65895L71.2869 7.3746L70.9291 6.41413L74.0177 4.7945H75.1665V16.5462H73.5845Z" fill="#EA638C"/>
<path d="M93.6791 16.7534C92.4864 16.7534 91.5573 16.2323 90.8919 15.1902C90.239 14.1481 89.9126 12.6666 89.9126 10.7457C89.9126 8.87495 90.239 7.39971 90.8919 6.31996C91.5573 5.24021 92.4864 4.70034 93.6791 4.70034C94.8719 4.70034 95.7947 5.24021 96.4476 6.31996C97.113 7.39971 97.4457 8.87495 97.4457 10.7457C97.4457 12.6666 97.113 14.1481 96.4476 15.1902C95.7947 16.2323 94.8719 16.7534 93.6791 16.7534ZM91.4757 10.7457C91.4757 11.4613 91.5196 12.1016 91.6075 12.6666L95.4871 7.80776C95.3113 7.24277 95.0665 6.80962 94.7526 6.50829C94.4513 6.19441 94.0935 6.03747 93.6791 6.03747C92.976 6.03747 92.4299 6.46435 92.0407 7.3181C91.664 8.1593 91.4757 9.30183 91.4757 10.7457ZM93.6791 15.4539C94.3822 15.4539 94.9221 15.0458 95.2988 14.2298C95.688 13.4137 95.8826 12.2523 95.8826 10.7457C95.8826 10.1179 95.8449 9.54666 95.7696 9.03189L91.89 13.8343C92.2667 14.914 92.8631 15.4539 93.6791 15.4539Z" fill="#EA638C"/>
<path d="M102.964 16.5462V6.65895L100.666 7.3746L100.308 6.41413L103.397 4.7945H104.546V16.5462H102.964Z" fill="#EA638C"/>
<path d="M112.757 16.5462V6.65895L110.459 7.3746L110.101 6.41413L113.19 4.7945H114.339V16.5462H112.757Z" fill="#EA638C"/>
<path d="M123.058 16.7534C121.866 16.7534 120.937 16.2323 120.271 15.1902C119.618 14.1481 119.292 12.6666 119.292 10.7457C119.292 8.87495 119.618 7.39971 120.271 6.31996C120.937 5.24021 121.866 4.70034 123.058 4.70034C124.251 4.70034 125.174 5.24021 125.827 6.31996C126.492 7.39971 126.825 8.87495 126.825 10.7457C126.825 12.6666 126.492 14.1481 125.827 15.1902C125.174 16.2323 124.251 16.7534 123.058 16.7534ZM120.855 10.7457C120.855 11.4613 120.899 12.1016 120.987 12.6666L124.866 7.80776C124.691 7.24277 124.446 6.80962 124.132 6.50829C123.831 6.19441 123.473 6.03747 123.058 6.03747C122.355 6.03747 121.809 6.46435 121.42 7.3181C121.043 8.1593 120.855 9.30183 120.855 10.7457ZM123.058 15.4539C123.761 15.4539 124.301 15.0458 124.678 14.2298C125.067 13.4137 125.262 12.2523 125.262 10.7457C125.262 10.1179 125.224 9.54666 125.149 9.03189L121.269 13.8343C121.646 14.914 122.242 15.4539 123.058 15.4539Z" fill="#EA638C"/>
<path d="M132.851 16.7534C131.659 16.7534 130.73 16.2323 130.064 15.1902C129.411 14.1481 129.085 12.6666 129.085 10.7457C129.085 8.87495 129.411 7.39971 130.064 6.31996C130.73 5.24021 131.659 4.70034 132.851 4.70034C134.044 4.70034 134.967 5.24021 135.62 6.31996C136.285 7.39971 136.618 8.87495 136.618 10.7457C136.618 12.6666 136.285 14.1481 135.62 15.1902C134.967 16.2323 134.044 16.7534 132.851 16.7534ZM130.648 10.7457C130.648 11.4613 130.692 12.1016 130.78 12.6666L134.659 7.80776C134.484 7.24277 134.239 6.80962 133.925 6.50829C133.624 6.19441 133.266 6.03747 132.851 6.03747C132.148 6.03747 131.602 6.46435 131.213 7.3181C130.836 8.1593 130.648 9.30183 130.648 10.7457ZM132.851 15.4539C133.555 15.4539 134.094 15.0458 134.471 14.2298C134.86 13.4137 135.055 12.2523 135.055 10.7457C135.055 10.1179 135.017 9.54666 134.942 9.03189L131.062 13.8343C131.439 14.914 132.035 15.4539 132.851 15.4539Z" fill="#EA638C"/>
<path d="M142.645 16.7534C141.452 16.7534 140.523 16.2323 139.857 15.1902C139.204 14.1481 138.878 12.6666 138.878 10.7457C138.878 8.87495 139.204 7.39971 139.857 6.31996C140.523 5.24021 141.452 4.70034 142.645 4.70034C143.837 4.70034 144.76 5.24021 145.413 6.31996C146.078 7.39971 146.411 8.87495 146.411 10.7457C146.411 12.6666 146.078 14.1481 145.413 15.1902C144.76 16.2323 143.837 16.7534 142.645 16.7534ZM140.441 10.7457C140.441 11.4613 140.485 12.1016 140.573 12.6666L144.452 7.80776C144.277 7.24277 144.032 6.80962 143.718 6.50829C143.417 6.19441 143.059 6.03747 142.645 6.03747C141.941 6.03747 141.395 6.46435 141.006 7.3181C140.629 8.1593 140.441 9.30183 140.441 10.7457ZM142.645 15.4539C143.348 15.4539 143.887 15.0458 144.264 14.2298C144.653 13.4137 144.848 12.2523 144.848 10.7457C144.848 10.1179 144.81 9.54666 144.735 9.03189L140.855 13.8343C141.232 14.914 141.828 15.4539 142.645 15.4539Z" fill="#EA638C"/>
<path d="M152.438 16.7534C151.245 16.7534 150.316 16.2323 149.65 15.1902C148.997 14.1481 148.671 12.6666 148.671 10.7457C148.671 8.87495 148.997 7.39971 149.65 6.31996C150.316 5.24021 151.245 4.70034 152.438 4.70034C153.63 4.70034 154.553 5.24021 155.206 6.31996C155.871 7.39971 156.204 8.87495 156.204 10.7457C156.204 12.6666 155.871 14.1481 155.206 15.1902C154.553 16.2323 153.63 16.7534 152.438 16.7534ZM150.234 10.7457C150.234 11.4613 150.278 12.1016 150.366 12.6666L154.246 7.80776C154.07 7.24277 153.825 6.80962 153.511 6.50829C153.21 6.19441 152.852 6.03747 152.438 6.03747C151.734 6.03747 151.188 6.46435 150.799 7.3181C150.422 8.1593 150.234 9.30183 150.234 10.7457ZM152.438 15.4539C153.141 15.4539 153.681 15.0458 154.057 14.2298C154.446 13.4137 154.641 12.2523 154.641 10.7457C154.641 10.1179 154.603 9.54666 154.528 9.03189L150.648 13.8343C151.025 14.914 151.621 15.4539 152.438 15.4539Z" fill="#EA638C"/>
<path d="M161.722 16.5462V6.65895L159.425 7.3746L159.067 6.41413L162.155 4.7945H163.304V16.5462H161.722Z" fill="#EA638C"/>
<path d="M5.54149 43.1193C4.34875 43.1193 3.41966 42.5983 2.75423 41.5562C2.10136 40.5141 1.77493 39.0326 1.77493 37.1116C1.77493 35.2409 2.10136 33.7657 2.75423 32.6859C3.41966 31.6062 4.34875 31.0663 5.54149 31.0663C6.73424 31.0663 7.65705 31.6062 8.30992 32.6859C8.97534 33.7657 9.30806 35.2409 9.30806 37.1116C9.30806 39.0326 8.97534 40.5141 8.30992 41.5562C7.65705 42.5983 6.73424 43.1193 5.54149 43.1193ZM3.33805 37.1116C3.33805 37.8273 3.38199 38.4676 3.46988 39.0326L7.34944 34.1737C7.17367 33.6087 6.92884 33.1756 6.61496 32.8743C6.31364 32.5604 5.95581 32.4034 5.54149 32.4034C4.8384 32.4034 4.29225 32.8303 3.90304 33.6841C3.52638 34.5253 3.33805 35.6678 3.33805 37.1116ZM5.54149 41.8199C6.24458 41.8199 6.78446 41.4118 7.16112 40.5957C7.55033 39.7796 7.74493 38.6183 7.74493 37.1116C7.74493 36.4839 7.70727 35.9126 7.63194 35.3979L3.75237 40.2002C4.12903 41.28 4.7254 41.8199 5.54149 41.8199Z" fill="#EA638C"/>
<path d="M14.8261 42.9122V33.0249L12.5285 33.7406L12.1706 32.7801L15.2592 31.1605H16.408V42.9122H14.8261Z" fill="#EA638C"/>
<path d="M24.6191 42.9122V33.0249L22.3215 33.7406L21.9637 32.7801L25.0523 31.1605H26.2011V42.9122H24.6191Z" fill="#EA638C"/>
<path d="M34.4122 42.9122V33.0249L32.1146 33.7406L31.7568 32.7801L34.8454 31.1605H35.9942V42.9122H34.4122Z" fill="#EA638C"/>
<path d="M44.7138 43.1193C43.521 43.1193 42.5919 42.5983 41.9265 41.5562C41.2736 40.5141 40.9472 39.0326 40.9472 37.1116C40.9472 35.2409 41.2736 33.7657 41.9265 32.6859C42.5919 31.6062 43.521 31.0663 44.7138 31.0663C45.9065 31.0663 46.8293 31.6062 47.4822 32.6859C48.1476 33.7657 48.4803 35.2409 48.4803 37.1116C48.4803 39.0326 48.1476 40.5141 47.4822 41.5562C46.8293 42.5983 45.9065 43.1193 44.7138 43.1193ZM42.5103 37.1116C42.5103 37.8273 42.5543 38.4676 42.6422 39.0326L46.5217 34.1737C46.346 33.6087 46.1011 33.1756 45.7873 32.8743C45.4859 32.5604 45.1281 32.4034 44.7138 32.4034C44.0107 32.4034 43.4645 32.8303 43.0753 33.6841C42.6987 34.5253 42.5103 35.6678 42.5103 37.1116ZM44.7138 41.8199C45.4169 41.8199 45.9567 41.4118 46.3334 40.5957C46.7226 39.7796 46.9172 38.6183 46.9172 37.1116C46.9172 36.4839 46.8796 35.9126 46.8042 35.3979L42.9247 40.2002C43.3013 41.28 43.8977 41.8199 44.7138 41.8199Z" fill="#EA638C"/>
<path d="M53.9984 42.9122V33.0249L51.7008 33.7406L51.3429 32.7801L54.4315 31.1605H55.5803V42.9122H53.9984Z" fill="#EA638C"/>
<path d="M64.2999 43.1193C63.1072 43.1193 62.1781 42.5983 61.5127 41.5562C60.8598 40.5141 60.5334 39.0326 60.5334 37.1116C60.5334 35.2409 60.8598 33.7657 61.5127 32.6859C62.1781 31.6062 63.1072 31.0663 64.2999 31.0663C65.4927 31.0663 66.4155 31.6062 67.0684 32.6859C67.7338 33.7657 68.0665 35.2409 68.0665 37.1116C68.0665 39.0326 67.7338 40.5141 67.0684 41.5562C66.4155 42.5983 65.4927 43.1193 64.2999 43.1193ZM62.0965 37.1116C62.0965 37.8273 62.1404 38.4676 62.2283 39.0326L66.1079 34.1737C65.9321 33.6087 65.6873 33.1756 65.3734 32.8743C65.0721 32.5604 64.7142 32.4034 64.2999 32.4034C63.5968 32.4034 63.0507 32.8303 62.6615 33.6841C62.2848 34.5253 62.0965 35.6678 62.0965 37.1116ZM64.2999 41.8199C65.003 41.8199 65.5429 41.4118 65.9195 40.5957C66.3088 39.7796 66.5034 38.6183 66.5034 37.1116C66.5034 36.4839 66.4657 35.9126 66.3904 35.3979L62.5108 40.2002C62.8875 41.28 63.4838 41.8199 64.2999 41.8199Z" fill="#EA638C"/>
<path d="M74.093 43.1193C72.9003 43.1193 71.9712 42.5983 71.3057 41.5562C70.6529 40.5141 70.3264 39.0326 70.3264 37.1116C70.3264 35.2409 70.6529 33.7657 71.3057 32.6859C71.9712 31.6062 72.9003 31.0663 74.093 31.0663C75.2857 31.0663 76.2086 31.6062 76.8614 32.6859C77.5269 33.7657 77.8596 35.2409 77.8596 37.1116C77.8596 39.0326 77.5269 40.5141 76.8614 41.5562C76.2086 42.5983 75.2857 43.1193 74.093 43.1193ZM71.8896 37.1116C71.8896 37.8273 71.9335 38.4676 72.0214 39.0326L75.9009 34.1737C75.7252 33.6087 75.4804 33.1756 75.1665 32.8743C74.8651 32.5604 74.5073 32.4034 74.093 32.4034C73.3899 32.4034 72.8437 32.8303 72.4545 33.6841C72.0779 34.5253 71.8896 35.6678 71.8896 37.1116ZM74.093 41.8199C74.7961 41.8199 75.336 41.4118 75.7126 40.5957C76.1018 39.7796 76.2964 38.6183 76.2964 37.1116C76.2964 36.4839 76.2588 35.9126 76.1834 35.3979L72.3039 40.2002C72.6805 41.28 73.2769 41.8199 74.093 41.8199Z" fill="#EA638C"/>
<path d="M93.6791 43.1193C92.4864 43.1193 91.5573 42.5983 90.8919 41.5562C90.239 40.5141 89.9126 39.0326 89.9126 37.1116C89.9126 35.2409 90.239 33.7657 90.8919 32.6859C91.5573 31.6062 92.4864 31.0663 93.6791 31.0663C94.8719 31.0663 95.7947 31.6062 96.4476 32.6859C97.113 33.7657 97.4457 35.2409 97.4457 37.1116C97.4457 39.0326 97.113 40.5141 96.4476 41.5562C95.7947 42.5983 94.8719 43.1193 93.6791 43.1193ZM91.4757 37.1116C91.4757 37.8273 91.5196 38.4676 91.6075 39.0326L95.4871 34.1737C95.3113 33.6087 95.0665 33.1756 94.7526 32.8743C94.4513 32.5604 94.0935 32.4034 93.6791 32.4034C92.976 32.4034 92.4299 32.8303 92.0407 33.6841C91.664 34.5253 91.4757 35.6678 91.4757 37.1116ZM93.6791 41.8199C94.3822 41.8199 94.9221 41.4118 95.2988 40.5957C95.688 39.7796 95.8826 38.6183 95.8826 37.1116C95.8826 36.4839 95.8449 35.9126 95.7696 35.3979L91.89 40.2002C92.2667 41.28 92.8631 41.8199 93.6791 41.8199Z" fill="#EA638C"/>
<path d="M102.964 42.9122V33.0249L100.666 33.7406L100.308 32.7801L103.397 31.1605H104.546V42.9122H102.964Z" fill="#EA638C"/>
<path d="M112.757 42.9122V33.0249L110.459 33.7406L110.101 32.7801L113.19 31.1605H114.339V42.9122H112.757Z" fill="#EA638C"/>
<path d="M123.058 43.1193C121.866 43.1193 120.937 42.5983 120.271 41.5562C119.618 40.5141 119.292 39.0326 119.292 37.1116C119.292 35.2409 119.618 33.7657 120.271 32.6859C120.937 31.6062 121.866 31.0663 123.058 31.0663C124.251 31.0663 125.174 31.6062 125.827 32.6859C126.492 33.7657 126.825 35.2409 126.825 37.1116C126.825 39.0326 126.492 40.5141 125.827 41.5562C125.174 42.5983 124.251 43.1193 123.058 43.1193ZM120.855 37.1116C120.855 37.8273 120.899 38.4676 120.987 39.0326L124.866 34.1737C124.691 33.6087 124.446 33.1756 124.132 32.8743C123.831 32.5604 123.473 32.4034 123.058 32.4034C122.355 32.4034 121.809 32.8303 121.42 33.6841C121.043 34.5253 120.855 35.6678 120.855 37.1116ZM123.058 41.8199C123.761 41.8199 124.301 41.4118 124.678 40.5957C125.067 39.7796 125.262 38.6183 125.262 37.1116C125.262 36.4839 125.224 35.9126 125.149 35.3979L121.269 40.2002C121.646 41.28 122.242 41.8199 123.058 41.8199Z" fill="#EA638C"/>
<path d="M132.851 43.1193C131.659 43.1193 130.73 42.5983 130.064 41.5562C129.411 40.5141 129.085 39.0326 129.085 37.1116C129.085 35.2409 129.411 33.7657 130.064 32.6859C130.73 31.6062 131.659 31.0663 132.851 31.0663C134.044 31.0663 134.967 31.6062 135.62 32.6859C136.285 33.7657 136.618 35.2409 136.618 37.1116C136.618 39.0326 136.285 40.5141 135.62 41.5562C134.967 42.5983 134.044 43.1193 132.851 43.1193ZM130.648 37.1116C130.648 37.8273 130.692 38.4676 130.78 39.0326L134.659 34.1737C134.484 33.6087 134.239 33.1756 133.925 32.8743C133.624 32.5604 133.266 32.4034 132.851 32.4034C132.148 32.4034 131.602 32.8303 131.213 33.6841C130.836 34.5253 130.648 35.6678 130.648 37.1116ZM132.851 41.8199C133.555 41.8199 134.094 41.4118 134.471 40.5957C134.86 39.7796 135.055 38.6183 135.055 37.1116C135.055 36.4839 135.017 35.9126 134.942 35.3979L131.062 40.2002C131.439 41.28 132.035 41.8199 132.851 41.8199Z" fill="#EA638C"/>
<path d="M142.645 43.1193C141.452 43.1193 140.523 42.5983 139.857 41.5562C139.204 40.5141 138.878 39.0326 138.878 37.1116C138.878 35.2409 139.204 33.7657 139.857 32.6859C140.523 31.6062 141.452 31.0663 142.645 31.0663C143.837 31.0663 144.76 31.6062 145.413 32.6859C146.078 33.7657 146.411 35.2409 146.411 37.1116C146.411 39.0326 146.078 40.5141 145.413 41.5562C144.76 42.5983 143.837 43.1193 142.645 43.1193ZM140.441 37.1116C140.441 37.8273 140.485 38.4676 140.573 39.0326L144.452 34.1737C144.277 33.6087 144.032 33.1756 143.718 32.8743C143.417 32.5604 143.059 32.4034 142.645 32.4034C141.941 32.4034 141.395 32.8303 141.006 33.6841C140.629 34.5253 140.441 35.6678 140.441 37.1116ZM142.645 41.8199C143.348 41.8199 143.887 41.4118 144.264 40.5957C144.653 39.7796 144.848 38.6183 144.848 37.1116C144.848 36.4839 144.81 35.9126 144.735 35.3979L140.855 40.2002C141.232 41.28 141.828 41.8199 142.645 41.8199Z" fill="#EA638C"/>
<path d="M152.438 43.1193C151.245 43.1193 150.316 42.5983 149.65 41.5562C148.997 40.5141 148.671 39.0326 148.671 37.1116C148.671 35.2409 148.997 33.7657 149.65 32.6859C150.316 31.6062 151.245 31.0663 152.438 31.0663C153.63 31.0663 154.553 31.6062 155.206 32.6859C155.871 33.7657 156.204 35.2409 156.204 37.1116C156.204 39.0326 155.871 40.5141 155.206 41.5562C154.553 42.5983 153.63 43.1193 152.438 43.1193ZM150.234 37.1116C150.234 37.8273 150.278 38.4676 150.366 39.0326L154.246 34.1737C154.07 33.6087 153.825 33.1756 153.511 32.8743C153.21 32.5604 152.852 32.4034 152.438 32.4034C151.734 32.4034 151.188 32.8303 150.799 33.6841C150.422 34.5253 150.234 35.6678 150.234 37.1116ZM152.438 41.8199C153.141 41.8199 153.681 41.4118 154.057 40.5957C154.446 39.7796 154.641 38.6183 154.641 37.1116C154.641 36.4839 154.603 35.9126 154.528 35.3979L150.648 40.2002C151.025 41.28 151.621 41.8199 152.438 41.8199Z" fill="#EA638C"/>
<path d="M161.722 42.9122V33.0249L159.425 33.7406L159.067 32.7801L162.155 31.1605H163.304V42.9122H161.722Z" fill="#EA638C"/>
<path d="M5.54149 69.4853C4.34875 69.4853 3.41966 68.9642 2.75423 67.9222C2.10136 66.8801 1.77493 65.3986 1.77493 63.4776C1.77493 61.6069 2.10136 60.1316 2.75423 59.0519C3.41966 57.9721 4.34875 57.4323 5.54149 57.4323C6.73424 57.4323 7.65705 57.9721 8.30992 59.0519C8.97534 60.1316 9.30806 61.6069 9.30806 63.4776C9.30806 65.3986 8.97534 66.8801 8.30992 67.9222C7.65705 68.9642 6.73424 69.4853 5.54149 69.4853ZM3.33805 63.4776C3.33805 64.1933 3.38199 64.8336 3.46988 65.3986L7.34944 60.5397C7.17367 59.9747 6.92884 59.5415 6.61496 59.2402C6.31364 58.9263 5.95581 58.7694 5.54149 58.7694C4.8384 58.7694 4.29225 59.1963 3.90304 60.05C3.52638 60.8912 3.33805 62.0338 3.33805 63.4776ZM5.54149 68.1858C6.24458 68.1858 6.78446 67.7778 7.16112 66.9617C7.55033 66.1456 7.74493 64.9842 7.74493 63.4776C7.74493 62.8498 7.70727 62.2786 7.63194 61.7638L3.75237 66.5662C4.12903 67.6459 4.7254 68.1858 5.54149 68.1858Z" fill="#EA638C"/>
<path d="M14.8261 69.2781V59.3909L12.5285 60.1065L12.1706 59.1461L15.2592 57.5264H16.408V69.2781H14.8261Z" fill="#EA638C"/>
<path d="M24.6191 69.2781V59.3909L22.3215 60.1065L21.9637 59.1461L25.0523 57.5264H26.2011V69.2781H24.6191Z" fill="#EA638C"/>
<path d="M34.4122 69.2781V59.3909L32.1146 60.1065L31.7568 59.1461L34.8454 57.5264H35.9942V69.2781H34.4122Z" fill="#EA638C"/>
<path d="M44.7138 69.4853C43.521 69.4853 42.5919 68.9642 41.9265 67.9222C41.2736 66.8801 40.9472 65.3986 40.9472 63.4776C40.9472 61.6069 41.2736 60.1316 41.9265 59.0519C42.5919 57.9721 43.521 57.4323 44.7138 57.4323C45.9065 57.4323 46.8293 57.9721 47.4822 59.0519C48.1476 60.1316 48.4803 61.6069 48.4803 63.4776C48.4803 65.3986 48.1476 66.8801 47.4822 67.9222C46.8293 68.9642 45.9065 69.4853 44.7138 69.4853ZM42.5103 63.4776C42.5103 64.1933 42.5543 64.8336 42.6422 65.3986L46.5217 60.5397C46.346 59.9747 46.1011 59.5415 45.7873 59.2402C45.4859 58.9263 45.1281 58.7694 44.7138 58.7694C44.0107 58.7694 43.4645 59.1963 43.0753 60.05C42.6987 60.8912 42.5103 62.0338 42.5103 63.4776ZM44.7138 68.1858C45.4169 68.1858 45.9567 67.7778 46.3334 66.9617C46.7226 66.1456 46.9172 64.9842 46.9172 63.4776C46.9172 62.8498 46.8796 62.2786 46.8042 61.7638L42.9247 66.5662C43.3013 67.6459 43.8977 68.1858 44.7138 68.1858Z" fill="#EA638C"/>
<path d="M54.5069 69.4853C53.3141 69.4853 52.385 68.9642 51.7196 67.9222C51.0667 66.8801 50.7403 65.3986 50.7403 63.4776C50.7403 61.6069 51.0667 60.1316 51.7196 59.0519C52.385 57.9721 53.3141 57.4323 54.5069 57.4323C55.6996 57.4323 56.6224 57.9721 57.2753 59.0519C57.9407 60.1316 58.2734 61.6069 58.2734 63.4776C58.2734 65.3986 57.9407 66.8801 57.2753 67.9222C56.6224 68.9642 55.6996 69.4853 54.5069 69.4853ZM52.3034 63.4776C52.3034 64.1933 52.3474 64.8336 52.4352 65.3986L56.3148 60.5397C56.139 59.9747 55.8942 59.5415 55.5803 59.2402C55.279 58.9263 54.9212 58.7694 54.5069 58.7694C53.8038 58.7694 53.2576 59.1963 52.8684 60.05C52.4917 60.8912 52.3034 62.0338 52.3034 63.4776ZM54.5069 68.1858C55.2099 68.1858 55.7498 67.7778 56.1265 66.9617C56.5157 66.1456 56.7103 64.9842 56.7103 63.4776C56.7103 62.8498 56.6726 62.2786 56.5973 61.7638L52.7177 66.5662C53.0944 67.6459 53.6908 68.1858 54.5069 68.1858Z" fill="#EA638C"/>
<path d="M63.7914 69.2781V59.3909L61.4938 60.1065L61.136 59.1461L64.2246 57.5264H65.3734V69.2781H63.7914Z" fill="#EA638C"/>
<path d="M73.5845 69.2781V59.3909L71.2869 60.1065L70.9291 59.1461L74.0177 57.5264H75.1665V69.2781H73.5845Z" fill="#EA638C"/>
<path d="M93.6791 69.4853C92.4864 69.4853 91.5573 68.9642 90.8919 67.9222C90.239 66.8801 89.9126 65.3986 89.9126 63.4776C89.9126 61.6069 90.239 60.1316 90.8919 59.0519C91.5573 57.9721 92.4864 57.4323 93.6791 57.4323C94.8719 57.4323 95.7947 57.9721 96.4476 59.0519C97.113 60.1316 97.4457 61.6069 97.4457 63.4776C97.4457 65.3986 97.113 66.8801 96.4476 67.9222C95.7947 68.9642 94.8719 69.4853 93.6791 69.4853ZM91.4757 63.4776C91.4757 64.1933 91.5196 64.8336 91.6075 65.3986L95.4871 60.5397C95.3113 59.9747 95.0665 59.5415 94.7526 59.2402C94.4513 58.9263 94.0935 58.7694 93.6791 58.7694C92.976 58.7694 92.4299 59.1963 92.0407 60.05C91.664 60.8912 91.4757 62.0338 91.4757 63.4776ZM93.6791 68.1858C94.3822 68.1858 94.9221 67.7778 95.2988 66.9617C95.688 66.1456 95.8826 64.9842 95.8826 63.4776C95.8826 62.8498 95.8449 62.2786 95.7696 61.7638L91.89 66.5662C92.2667 67.6459 92.8631 68.1858 93.6791 68.1858Z" fill="#EA638C"/>
<path d="M102.964 69.2781V59.3909L100.666 60.1065L100.308 59.1461L103.397 57.5264H104.546V69.2781H102.964Z" fill="#EA638C"/>
<path d="M112.757 69.2781V59.3909L110.459 60.1065L110.101 59.1461L113.19 57.5264H114.339V69.2781H112.757Z" fill="#EA638C"/>
<path d="M122.55 69.2781V59.3909L120.252 60.1065L119.894 59.1461L122.983 57.5264H124.132V69.2781H122.55Z" fill="#EA638C"/>
<path d="M132.851 69.4853C131.659 69.4853 130.73 68.9642 130.064 67.9222C129.411 66.8801 129.085 65.3986 129.085 63.4776C129.085 61.6069 129.411 60.1316 130.064 59.0519C130.73 57.9721 131.659 57.4323 132.851 57.4323C134.044 57.4323 134.967 57.9721 135.62 59.0519C136.285 60.1316 136.618 61.6069 136.618 63.4776C136.618 65.3986 136.285 66.8801 135.62 67.9222C134.967 68.9642 134.044 69.4853 132.851 69.4853ZM130.648 63.4776C130.648 64.1933 130.692 64.8336 130.78 65.3986L134.659 60.5397C134.484 59.9747 134.239 59.5415 133.925 59.2402C133.624 58.9263 133.266 58.7694 132.851 58.7694C132.148 58.7694 131.602 59.1963 131.213 60.05C130.836 60.8912 130.648 62.0338 130.648 63.4776ZM132.851 68.1858C133.555 68.1858 134.094 67.7778 134.471 66.9617C134.86 66.1456 135.055 64.9842 135.055 63.4776C135.055 62.8498 135.017 62.2786 134.942 61.7638L131.062 66.5662C131.439 67.6459 132.035 68.1858 132.851 68.1858Z" fill="#EA638C"/>
<path d="M142.136 69.2781V59.3909L139.838 60.1065L139.481 59.1461L142.569 57.5264H143.718V69.2781H142.136Z" fill="#EA638C"/>
<path d="M152.438 69.4853C151.245 69.4853 150.316 68.9642 149.65 67.9222C148.997 66.8801 148.671 65.3986 148.671 63.4776C148.671 61.6069 148.997 60.1316 149.65 59.0519C150.316 57.9721 151.245 57.4323 152.438 57.4323C153.63 57.4323 154.553 57.9721 155.206 59.0519C155.871 60.1316 156.204 61.6069 156.204 63.4776C156.204 65.3986 155.871 66.8801 155.206 67.9222C154.553 68.9642 153.63 69.4853 152.438 69.4853ZM150.234 63.4776C150.234 64.1933 150.278 64.8336 150.366 65.3986L154.246 60.5397C154.07 59.9747 153.825 59.5415 153.511 59.2402C153.21 58.9263 152.852 58.7694 152.438 58.7694C151.734 58.7694 151.188 59.1963 150.799 60.05C150.422 60.8912 150.234 62.0338 150.234 63.4776ZM152.438 68.1858C153.141 68.1858 153.681 67.7778 154.057 66.9617C154.446 66.1456 154.641 64.9842 154.641 63.4776C154.641 62.8498 154.603 62.2786 154.528 61.7638L150.648 66.5662C151.025 67.6459 151.621 68.1858 152.438 68.1858Z" fill="#EA638C"/>
<path d="M162.231 69.4853C161.038 69.4853 160.109 68.9642 159.443 67.9222C158.791 66.8801 158.464 65.3986 158.464 63.4776C158.464 61.6069 158.791 60.1316 159.443 59.0519C160.109 57.9721 161.038 57.4323 162.231 57.4323C163.423 57.4323 164.346 57.9721 164.999 59.0519C165.665 60.1316 165.997 61.6069 165.997 63.4776C165.997 65.3986 165.665 66.8801 164.999 67.9222C164.346 68.9642 163.423 69.4853 162.231 69.4853ZM160.027 63.4776C160.027 64.1933 160.071 64.8336 160.159 65.3986L164.039 60.5397C163.863 59.9747 163.618 59.5415 163.304 59.2402C163.003 58.9263 162.645 58.7694 162.231 58.7694C161.528 58.7694 160.981 59.1963 160.592 60.05C160.216 60.8912 160.027 62.0338 160.027 63.4776ZM162.231 68.1858C162.934 68.1858 163.474 67.7778 163.85 66.9617C164.239 66.1456 164.434 64.9842 164.434 63.4776C164.434 62.8498 164.396 62.2786 164.321 61.7638L160.442 66.5662C160.818 67.6459 161.415 68.1858 162.231 68.1858Z" fill="#EA638C"/>
<path d="M5.54149 95.8512C4.34875 95.8512 3.41966 95.3302 2.75423 94.2881C2.10136 93.246 1.77493 91.7645 1.77493 89.8436C1.77493 87.9728 2.10136 86.4976 2.75423 85.4179C3.41966 84.3381 4.34875 83.7982 5.54149 83.7982C6.73424 83.7982 7.65705 84.3381 8.30992 85.4179C8.97534 86.4976 9.30806 87.9728 9.30806 89.8436C9.30806 91.7645 8.97534 93.246 8.30992 94.2881C7.65705 95.3302 6.73424 95.8512 5.54149 95.8512ZM3.33805 89.8436C3.33805 90.5592 3.38199 91.1995 3.46988 91.7645L7.34944 86.9056C7.17367 86.3407 6.92884 85.9075 6.61496 85.6062C6.31364 85.2923 5.95581 85.1354 5.54149 85.1354C4.8384 85.1354 4.29225 85.5622 3.90304 86.416C3.52638 87.2572 3.33805 88.3997 3.33805 89.8436ZM5.54149 94.5518C6.24458 94.5518 6.78446 94.1437 7.16112 93.3276C7.55033 92.5116 7.74493 91.3502 7.74493 89.8436C7.74493 89.2158 7.70727 88.6445 7.63194 88.1298L3.75237 92.9322C4.12903 94.0119 4.7254 94.5518 5.54149 94.5518Z" fill="#EA638C"/>
<path d="M14.8261 95.6441V85.7568L12.5285 86.4725L12.1706 85.512L15.2592 83.8924H16.408V95.6441H14.8261Z" fill="#EA638C"/>
<path d="M24.6191 95.6441V85.7568L22.3215 86.4725L21.9637 85.512L25.0523 83.8924H26.2011V95.6441H24.6191Z" fill="#EA638C"/>
<path d="M34.9207 95.8512C33.728 95.8512 32.7989 95.3302 32.1334 94.2881C31.4806 93.246 31.1541 91.7645 31.1541 89.8436C31.1541 87.9728 31.4806 86.4976 32.1334 85.4179C32.7989 84.3381 33.728 83.7982 34.9207 83.7982C36.1135 83.7982 37.0363 84.3381 37.6891 85.4179C38.3546 86.4976 38.6873 87.9728 38.6873 89.8436C38.6873 91.7645 38.3546 93.246 37.6891 94.2881C37.0363 95.3302 36.1135 95.8512 34.9207 95.8512ZM32.7173 89.8436C32.7173 90.5592 32.7612 91.1995 32.8491 91.7645L36.7287 86.9056C36.5529 86.3407 36.3081 85.9075 35.9942 85.6062C35.6929 85.2923 35.335 85.1354 34.9207 85.1354C34.2176 85.1354 33.6715 85.5622 33.2823 86.416C32.9056 87.2572 32.7173 88.3997 32.7173 89.8436ZM34.9207 94.5518C35.6238 94.5518 36.1637 94.1437 36.5403 93.3276C36.9295 92.5116 37.1241 91.3502 37.1241 89.8436C37.1241 89.2158 37.0865 88.6445 37.0112 88.1298L33.1316 92.9322C33.5082 94.0119 34.1046 94.5518 34.9207 94.5518Z" fill="#EA638C"/>
<path d="M44.7138 95.8512C43.521 95.8512 42.5919 95.3302 41.9265 94.2881C41.2736 93.246 40.9472 91.7645 40.9472 89.8436C40.9472 87.9728 41.2736 86.4976 41.9265 85.4179C42.5919 84.3381 43.521 83.7982 44.7138 83.7982C45.9065 83.7982 46.8293 84.3381 47.4822 85.4179C48.1476 86.4976 48.4803 87.9728 48.4803 89.8436C48.4803 91.7645 48.1476 93.246 47.4822 94.2881C46.8293 95.3302 45.9065 95.8512 44.7138 95.8512ZM42.5103 89.8436C42.5103 90.5592 42.5543 91.1995 42.6422 91.7645L46.5217 86.9056C46.346 86.3407 46.1011 85.9075 45.7873 85.6062C45.4859 85.2923 45.1281 85.1354 44.7138 85.1354C44.0107 85.1354 43.4645 85.5622 43.0753 86.416C42.6987 87.2572 42.5103 88.3997 42.5103 89.8436ZM44.7138 94.5518C45.4169 94.5518 45.9567 94.1437 46.3334 93.3276C46.7226 92.5116 46.9172 91.3502 46.9172 89.8436C46.9172 89.2158 46.8796 88.6445 46.8042 88.1298L42.9247 92.9322C43.3013 94.0119 43.8977 94.5518 44.7138 94.5518Z" fill="#EA638C"/>
<path d="M54.5069 95.8512C53.3141 95.8512 52.385 95.3302 51.7196 94.2881C51.0667 93.246 50.7403 91.7645 50.7403 89.8436C50.7403 87.9728 51.0667 86.4976 51.7196 85.4179C52.385 84.3381 53.3141 83.7982 54.5069 83.7982C55.6996 83.7982 56.6224 84.3381 57.2753 85.4179C57.9407 86.4976 58.2734 87.9728 58.2734 89.8436C58.2734 91.7645 57.9407 93.246 57.2753 94.2881C56.6224 95.3302 55.6996 95.8512 54.5069 95.8512ZM52.3034 89.8436C52.3034 90.5592 52.3474 91.1995 52.4352 91.7645L56.3148 86.9056C56.139 86.3407 55.8942 85.9075 55.5803 85.6062C55.279 85.2923 54.9212 85.1354 54.5069 85.1354C53.8038 85.1354 53.2576 85.5622 52.8684 86.416C52.4917 87.2572 52.3034 88.3997 52.3034 89.8436ZM54.5069 94.5518C55.2099 94.5518 55.7498 94.1437 56.1265 93.3276C56.5157 92.5116 56.7103 91.3502 56.7103 89.8436C56.7103 89.2158 56.6726 88.6445 56.5973 88.1298L52.7177 92.9322C53.0944 94.0119 53.6908 94.5518 54.5069 94.5518Z" fill="#EA638C"/>
<path d="M64.2999 95.8512C63.1072 95.8512 62.1781 95.3302 61.5127 94.2881C60.8598 93.246 60.5334 91.7645 60.5334 89.8436C60.5334 87.9728 60.8598 86.4976 61.5127 85.4179C62.1781 84.3381 63.1072 83.7982 64.2999 83.7982C65.4927 83.7982 66.4155 84.3381 67.0684 85.4179C67.7338 86.4976 68.0665 87.9728 68.0665 89.8436C68.0665 91.7645 67.7338 93.246 67.0684 94.2881C66.4155 95.3302 65.4927 95.8512 64.2999 95.8512ZM62.0965 89.8436C62.0965 90.5592 62.1404 91.1995 62.2283 91.7645L66.1079 86.9056C65.9321 86.3407 65.6873 85.9075 65.3734 85.6062C65.0721 85.2923 64.7142 85.1354 64.2999 85.1354C63.5968 85.1354 63.0507 85.5622 62.6615 86.416C62.2848 87.2572 62.0965 88.3997 62.0965 89.8436ZM64.2999 94.5518C65.003 94.5518 65.5429 94.1437 65.9195 93.3276C66.3088 92.5116 66.5034 91.3502 66.5034 89.8436C66.5034 89.2158 66.4657 88.6445 66.3904 88.1298L62.5108 92.9322C62.8875 94.0119 63.4838 94.5518 64.2999 94.5518Z" fill="#EA638C"/>
<path d="M73.5845 95.6441V85.7568L71.2869 86.4725L70.9291 85.512L74.0177 83.8924H75.1665V95.6441H73.5845Z" fill="#EA638C"/>
<path d="M93.6791 95.8512C92.4864 95.8512 91.5573 95.3302 90.8919 94.2881C90.239 93.246 89.9126 91.7645 89.9126 89.8436C89.9126 87.9728 90.239 86.4976 90.8919 85.4179C91.5573 84.3381 92.4864 83.7982 93.6791 83.7982C94.8719 83.7982 95.7947 84.3381 96.4476 85.4179C97.113 86.4976 97.4457 87.9728 97.4457 89.8436C97.4457 91.7645 97.113 93.246 96.4476 94.2881C95.7947 95.3302 94.8719 95.8512 93.6791 95.8512ZM91.4757 89.8436C91.4757 90.5592 91.5196 91.1995 91.6075 91.7645L95.4871 86.9056C95.3113 86.3407 95.0665 85.9075 94.7526 85.6062C94.4513 85.2923 94.0935 85.1354 93.6791 85.1354C92.976 85.1354 92.4299 85.5622 92.0407 86.416C91.664 87.2572 91.4757 88.3997 91.4757 89.8436ZM93.6791 94.5518C94.3822 94.5518 94.9221 94.1437 95.2988 93.3276C95.688 92.5116 95.8826 91.3502 95.8826 89.8436C95.8826 89.2158 95.8449 88.6445 95.7696 88.1298L91.89 92.9322C92.2667 94.0119 92.8631 94.5518 93.6791 94.5518Z" fill="#EA638C"/>
<path d="M102.964 95.6441V85.7568L100.666 86.4725L100.308 85.512L103.397 83.8924H104.546V95.6441H102.964Z" fill="#EA638C"/>
<path d="M112.757 95.6441V85.7568L110.459 86.4725L110.101 85.512L113.19 83.8924H114.339V95.6441H112.757Z" fill="#EA638C"/>
<path d="M122.55 95.6441V85.7568L120.252 86.4725L119.894 85.512L122.983 83.8924H124.132V95.6441H122.55Z" fill="#EA638C"/>
<path d="M132.851 95.8512C131.659 95.8512 130.73 95.3302 130.064 94.2881C129.411 93.246 129.085 91.7645 129.085 89.8436C129.085 87.9728 129.411 86.4976 130.064 85.4179C130.73 84.3381 131.659 83.7982 132.851 83.7982C134.044 83.7982 134.967 84.3381 135.62 85.4179C136.285 86.4976 136.618 87.9728 136.618 89.8436C136.618 91.7645 136.285 93.246 135.62 94.2881C134.967 95.3302 134.044 95.8512 132.851 95.8512ZM130.648 89.8436C130.648 90.5592 130.692 91.1995 130.78 91.7645L134.659 86.9056C134.484 86.3407 134.239 85.9075 133.925 85.6062C133.624 85.2923 133.266 85.1354 132.851 85.1354C132.148 85.1354 131.602 85.5622 131.213 86.416C130.836 87.2572 130.648 88.3997 130.648 89.8436ZM132.851 94.5518C133.555 94.5518 134.094 94.1437 134.471 93.3276C134.86 92.5116 135.055 91.3502 135.055 89.8436C135.055 89.2158 135.017 88.6445 134.942 88.1298L131.062 92.9322C131.439 94.0119 132.035 94.5518 132.851 94.5518Z" fill="#EA638C"/>
<path d="M142.645 95.8512C141.452 95.8512 140.523 95.3302 139.857 94.2881C139.204 93.246 138.878 91.7645 138.878 89.8436C138.878 87.9728 139.204 86.4976 139.857 85.4179C140.523 84.3381 141.452 83.7982 142.645 83.7982C143.837 83.7982 144.76 84.3381 145.413 85.4179C146.078 86.4976 146.411 87.9728 146.411 89.8436C146.411 91.7645 146.078 93.246 145.413 94.2881C144.76 95.3302 143.837 95.8512 142.645 95.8512ZM140.441 89.8436C140.441 90.5592 140.485 91.1995 140.573 91.7645L144.452 86.9056C144.277 86.3407 144.032 85.9075 143.718 85.6062C143.417 85.2923 143.059 85.1354 142.645 85.1354C141.941 85.1354 141.395 85.5622 141.006 86.416C140.629 87.2572 140.441 88.3997 140.441 89.8436ZM142.645 94.5518C143.348 94.5518 143.887 94.1437 144.264 93.3276C144.653 92.5116 144.848 91.3502 144.848 89.8436C144.848 89.2158 144.81 88.6445 144.735 88.1298L140.855 92.9322C141.232 94.0119 141.828 94.5518 142.645 94.5518Z" fill="#EA638C"/>
<path d="M151.929 95.6441V85.7568L149.631 86.4725L149.274 85.512L152.362 83.8924H153.511V95.6441H151.929Z" fill="#EA638C"/>
<path d="M161.722 95.6441V85.7568L159.425 86.4725L159.067 85.512L162.155 83.8924H163.304V95.6441H161.722Z" fill="#EA638C"/>
<path d="M5.54149 122.217C4.34875 122.217 3.41966 121.696 2.75423 120.654C2.10136 119.612 1.77493 118.13 1.77493 116.21C1.77493 114.339 2.10136 112.864 2.75423 111.784C3.41966 110.704 4.34875 110.164 5.54149 110.164C6.73424 110.164 7.65705 110.704 8.30992 111.784C8.97534 112.864 9.30806 114.339 9.30806 116.21C9.30806 118.13 8.97534 119.612 8.30992 120.654C7.65705 121.696 6.73424 122.217 5.54149 122.217ZM3.33805 116.21C3.33805 116.925 3.38199 117.565 3.46988 118.13L7.34944 113.272C7.17367 112.707 6.92884 112.273 6.61496 111.972C6.31364 111.658 5.95581 111.501 5.54149 111.501C4.8384 111.501 4.29225 111.928 3.90304 112.782C3.52638 113.623 3.33805 114.766 3.33805 116.21ZM5.54149 120.918C6.24458 120.918 6.78446 120.51 7.16112 119.694C7.55033 118.878 7.74493 117.716 7.74493 116.21C7.74493 115.582 7.70727 115.011 7.63194 114.496L3.75237 119.298C4.12903 120.378 4.7254 120.918 5.54149 120.918Z" fill="#EA638C"/>
<path d="M14.8261 122.01V112.123L12.5285 112.838L12.1706 111.878L15.2592 110.258H16.408V122.01H14.8261Z" fill="#EA638C"/>
<path d="M24.6191 122.01V112.123L22.3215 112.838L21.9637 111.878L25.0523 110.258H26.2011V122.01H24.6191Z" fill="#EA638C"/>
<path d="M34.9207 122.217C33.728 122.217 32.7989 121.696 32.1334 120.654C31.4806 119.612 31.1541 118.13 31.1541 116.21C31.1541 114.339 31.4806 112.864 32.1334 111.784C32.7989 110.704 33.728 110.164 34.9207 110.164C36.1135 110.164 37.0363 110.704 37.6891 111.784C38.3546 112.864 38.6873 114.339 38.6873 116.21C38.6873 118.13 38.3546 119.612 37.6891 120.654C37.0363 121.696 36.1135 122.217 34.9207 122.217ZM32.7173 116.21C32.7173 116.925 32.7612 117.565 32.8491 118.13L36.7287 113.272C36.5529 112.707 36.3081 112.273 35.9942 111.972C35.6929 111.658 35.335 111.501 34.9207 111.501C34.2176 111.501 33.6715 111.928 33.2823 112.782C32.9056 113.623 32.7173 114.766 32.7173 116.21ZM34.9207 120.918C35.6238 120.918 36.1637 120.51 36.5403 119.694C36.9295 118.878 37.1241 117.716 37.1241 116.21C37.1241 115.582 37.0865 115.011 37.0112 114.496L33.1316 119.298C33.5082 120.378 34.1046 120.918 34.9207 120.918Z" fill="#EA638C"/>
<path d="M44.2053 122.01V112.123L41.9077 112.838L41.5499 111.878L44.6384 110.258H45.7873V122.01H44.2053Z" fill="#EA638C"/>
<path d="M54.5069 122.217C53.3141 122.217 52.385 121.696 51.7196 120.654C51.0667 119.612 50.7403 118.13 50.7403 116.21C50.7403 114.339 51.0667 112.864 51.7196 111.784C52.385 110.704 53.3141 110.164 54.5069 110.164C55.6996 110.164 56.6224 110.704 57.2753 111.784C57.9407 112.864 58.2734 114.339 58.2734 116.21C58.2734 118.13 57.9407 119.612 57.2753 120.654C56.6224 121.696 55.6996 122.217 54.5069 122.217ZM52.3034 116.21C52.3034 116.925 52.3474 117.565 52.4352 118.13L56.3148 113.272C56.139 112.707 55.8942 112.273 55.5803 111.972C55.279 111.658 54.9212 111.501 54.5069 111.501C53.8038 111.501 53.2576 111.928 52.8684 112.782C52.4917 113.623 52.3034 114.766 52.3034 116.21ZM54.5069 120.918C55.2099 120.918 55.7498 120.51 56.1265 119.694C56.5157 118.878 56.7103 117.716 56.7103 116.21C56.7103 115.582 56.6726 115.011 56.5973 114.496L52.7177 119.298C53.0944 120.378 53.6908 120.918 54.5069 120.918Z" fill="#EA638C"/>
<path d="M64.2999 122.217C63.1072 122.217 62.1781 121.696 61.5127 120.654C60.8598 119.612 60.5334 118.13 60.5334 116.21C60.5334 114.339 60.8598 112.864 61.5127 111.784C62.1781 110.704 63.1072 110.164 64.2999 110.164C65.4927 110.164 66.4155 110.704 67.0684 111.784C67.7338 112.864 68.0665 114.339 68.0665 116.21C68.0665 118.13 67.7338 119.612 67.0684 120.654C66.4155 121.696 65.4927 122.217 64.2999 122.217ZM62.0965 116.21C62.0965 116.925 62.1404 117.565 62.2283 118.13L66.1079 113.272C65.9321 112.707 65.6873 112.273 65.3734 111.972C65.0721 111.658 64.7142 111.501 64.2999 111.501C63.5968 111.501 63.0507 111.928 62.6615 112.782C62.2848 113.623 62.0965 114.766 62.0965 116.21ZM64.2999 120.918C65.003 120.918 65.5429 120.51 65.9195 119.694C66.3088 118.878 66.5034 117.716 66.5034 116.21C66.5034 115.582 66.4657 115.011 66.3904 114.496L62.5108 119.298C62.8875 120.378 63.4838 120.918 64.2999 120.918Z" fill="#EA638C"/>
<path d="M73.5845 122.01V112.123L71.2869 112.838L70.9291 111.878L74.0177 110.258H75.1665V122.01H73.5845Z" fill="#EA638C"/>
<path d="M93.6791 122.217C92.4864 122.217 91.5573 121.696 90.8919 120.654C90.239 119.612 89.9126 118.13 89.9126 116.21C89.9126 114.339 90.239 112.864 90.8919 111.784C91.5573 110.704 92.4864 110.164 93.6791 110.164C94.8719 110.164 95.7947 110.704 96.4476 111.784C97.113 112.864 97.4457 114.339 97.4457 116.21C97.4457 118.13 97.113 119.612 96.4476 120.654C95.7947 121.696 94.8719 122.217 93.6791 122.217ZM91.4757 116.21C91.4757 116.925 91.5196 117.565 91.6075 118.13L95.4871 113.272C95.3113 112.707 95.0665 112.273 94.7526 111.972C94.4513 111.658 94.0935 111.501 93.6791 111.501C92.976 111.501 92.4299 111.928 92.0407 112.782C91.664 113.623 91.4757 114.766 91.4757 116.21ZM93.6791 120.918C94.3822 120.918 94.9221 120.51 95.2988 119.694C95.688 118.878 95.8826 117.716 95.8826 116.21C95.8826 115.582 95.8449 115.011 95.7696 114.496L91.89 119.298C92.2667 120.378 92.8631 120.918 93.6791 120.918Z" fill="#EA638C"/>
<path d="M102.964 122.01V112.123L100.666 112.838L100.308 111.878L103.397 110.258H104.546V122.01H102.964Z" fill="#EA638C"/>
<path d="M112.757 122.01V112.123L110.459 112.838L110.101 111.878L113.19 110.258H114.339V122.01H112.757Z" fill="#EA638C"/>
<path d="M122.55 122.01V112.123L120.252 112.838L119.894 111.878L122.983 110.258H124.132V122.01H122.55Z" fill="#EA638C"/>
<path d="M132.851 122.217C131.659 122.217 130.73 121.696 130.064 120.654C129.411 119.612 129.085 118.13 129.085 116.21C129.085 114.339 129.411 112.864 130.064 111.784C130.73 110.704 131.659 110.164 132.851 110.164C134.044 110.164 134.967 110.704 135.62 111.784C136.285 112.864 136.618 114.339 136.618 116.21C136.618 118.13 136.285 119.612 135.62 120.654C134.967 121.696 134.044 122.217 132.851 122.217ZM130.648 116.21C130.648 116.925 130.692 117.565 130.78 118.13L134.659 113.272C134.484 112.707 134.239 112.273 133.925 111.972C133.624 111.658 133.266 111.501 132.851 111.501C132.148 111.501 131.602 111.928 131.213 112.782C130.836 113.623 130.648 114.766 130.648 116.21ZM132.851 120.918C133.555 120.918 134.094 120.51 134.471 119.694C134.86 118.878 135.055 117.716 135.055 116.21C135.055 115.582 135.017 115.011 134.942 114.496L131.062 119.298C131.439 120.378 132.035 120.918 132.851 120.918Z" fill="#EA638C"/>
<path d="M142.645 122.217C141.452 122.217 140.523 121.696 139.857 120.654C139.204 119.612 138.878 118.13 138.878 116.21C138.878 114.339 139.204 112.864 139.857 111.784C140.523 110.704 141.452 110.164 142.645 110.164C143.837 110.164 144.76 110.704 145.413 111.784C146.078 112.864 146.411 114.339 146.411 116.21C146.411 118.13 146.078 119.612 145.413 120.654C144.76 121.696 143.837 122.217 142.645 122.217ZM140.441 116.21C140.441 116.925 140.485 117.565 140.573 118.13L144.452 113.272C144.277 112.707 144.032 112.273 143.718 111.972C143.417 111.658 143.059 111.501 142.645 111.501C141.941 111.501 141.395 111.928 141.006 112.782C140.629 113.623 140.441 114.766 140.441 116.21ZM142.645 120.918C143.348 120.918 143.887 120.51 144.264 119.694C144.653 118.878 144.848 117.716 144.848 116.21C144.848 115.582 144.81 115.011 144.735 114.496L140.855 119.298C141.232 120.378 141.828 120.918 142.645 120.918Z" fill="#EA638C"/>
<path d="M151.929 122.01V112.123L149.631 112.838L149.274 111.878L152.362 110.258H153.511V122.01H151.929Z" fill="#EA638C"/>
<path d="M161.722 122.01V112.123L159.425 112.838L159.067 111.878L162.155 110.258H163.304V122.01H161.722Z" fill="#EA638C"/>
</g>
<path id="hair-back" d="M150.321 84.3926C150.321 122.848 131.245 154.022 107.713 154.022C84.1808 154.022 65.1043 122.848 65.1043 84.3926C65.1043 45.9373 84.1808 14.7632 107.713 14.7632C146.826 14.7632 150.321 45.9373 150.321 84.3926Z" fill="url(#paint0_linear_1_153)"/>
<path id="shirt" fill-rule="evenodd" clip-rule="evenodd" d="M81.8794 107.867C65.373 107.867 51.9919 121.248 51.9919 137.754C51.9919 154.261 65.373 167.642 81.8794 167.642H134.348C134.518 167.642 134.687 167.64 134.856 167.637V167.642H164.236V138.889H164.214C164.228 138.513 164.236 138.134 164.236 137.754C164.236 121.248 150.854 107.867 134.348 107.867H81.8794Z" fill="#186741"/>
<ellipse id="hair-shadow" cx="118.647" cy="80.8365" rx="12.7356" ry="27.3283" transform="rotate(35.6961 118.647 80.8365)" fill="#442E15" fill-opacity="0.54"/>
<path id="neck" fill-rule="evenodd" clip-rule="evenodd" d="M122.425 95.383H91.0342V105.074C82.3024 107.385 76.4956 111.487 76.4956 116.162C76.4956 123.382 90.3446 129.235 107.428 129.235C124.512 129.235 138.361 123.382 138.361 116.162C138.361 111.242 131.929 106.957 122.425 104.726V95.383Z" fill="#E9CDB5"/>
<ellipse id="neck-shadow" cx="103.829" cy="91.9008" rx="19.5857" ry="14.0368" fill="#D1B8A3"/>
<ellipse id="hair-shadow_2" cx="82.0643" cy="88.4996" rx="12.7463" ry="28.7366" fill="#604425"/>
<path id="head" d="M134.928 63.481C134.928 86.0456 121.098 104.338 104.038 104.338C86.9781 104.338 80.0896 82.0386 73.1482 63.481C73.1482 40.9165 86.9781 22.6243 104.038 22.6243C121.098 22.6243 134.928 40.9165 134.928 63.481Z" fill="#E9CDB5"/>
<path id="hair-front" fill-rule="evenodd" clip-rule="evenodd" d="M141.174 166.888C141.837 153.726 143.264 135.375 145.923 108.413L122.577 104.116C120.668 117.706 124.874 143.817 129.917 166.888H141.174Z" fill="url(#paint1_linear_1_153)"/>
<ellipse id="shadow" rx="6.56822" ry="18.7607" transform="matrix(0.704241 -0.709961 0.706845 0.707368 122.984 37.8745)" fill="#D1B8A3"/>
<g id="left-eye">
<path id="Ellipse 21" d="M82.8083 62.7917C83.0002 64.9 85.6983 65.6719 89.7105 65.3067C93.7226 64.9415 94.9201 64.3402 96.4191 62.8327C96.2272 60.7244 93.0395 57.4373 89.0274 57.8025C85.0153 58.1676 82.6164 60.6834 82.8083 62.7917Z" fill="white" fill-opacity="0.6"/>
<path id="Ellipse 22" d="M87.5728 61.899C87.7496 63.8413 89.3056 65.2033 90.9597 65.0528C92.6138 64.9022 93.8983 63.2816 93.7215 61.3393C93.5447 59.397 91.9887 58.035 90.3347 58.1855C88.6806 58.3361 87.396 59.9567 87.5728 61.899Z" fill="#879729" stroke="#2F340D"/>
<path id="Vector 17" d="M80.639 62.0475C83.3703 58.2436 90.3514 52.5934 96.4251 60.4245" stroke="black" stroke-opacity="0.34" stroke-linecap="round"/>
<path id="Vector 19" d="M83.6106 60.8581C83.1512 60.7255 82.0478 60.5818 81.3095 61.0675M83.1206 62.222C82.6338 62.0389 81.4035 61.8005 80.3765 62.3126" stroke="black" stroke-linecap="round"/>
<ellipse id="Ellipse 23" rx="1.92539" ry="1.95273" transform="matrix(-0.995883 0.0906478 0.0906478 0.995883 90.9503 61.4377)" fill="black"/>
<path id="Ellipse 24" d="M90.8576 60.2539C90.8994 60.7128 91.4209 61.0403 92.0225 60.9856C92.624 60.9308 93.0778 60.5145 93.0361 60.0557C92.9943 59.5968 92.4728 59.2693 91.8712 59.324C91.2697 59.3788 90.8159 59.7951 90.8576 60.2539Z" fill="white"/>
<path id="Vector 18" d="M89.5515 65.4901C95.5205 64.6107 96.4151 62.928 96.4151 62.928C97.3344 59.7802 85.6751 52.8748 82.8619 63.0151C82.8619 63.0151 83.8424 64.448 84.6623 64.7687" stroke="#372715" stroke-linecap="round"/>
<path id="Vector 20" d="M77.7959 56.4834C85.3692 52.1358 94.4041 54.5422 97.9748 56.2888C99.075 56.2088 98.6863 55.426 98.3545 55.0446C84.5018 49.5215 77.7959 56.4834 77.7959 56.4834Z" fill="#80582A" stroke="#80582A" stroke-linecap="round"/>
</g>
<ellipse id="hair-front_2" cx="77.0061" cy="85.2363" rx="7.68801" ry="49.5326" fill="url(#paint2_linear_1_153)"/>
<path id="mouth" fill-rule="evenodd" clip-rule="evenodd" d="M97.5719 89.6838C98.7282 89.2432 100.656 88.9547 102.839 88.9547C104.835 88.9547 106.618 89.196 107.792 89.5742C108.53 89.3721 109.314 89.7608 109.59 90.4904C109.883 91.2651 109.493 92.131 108.718 92.4243C103.367 94.4501 98.2794 93.2918 96.2725 92.3896C95.5169 92.0499 95.1797 91.162 95.5194 90.4064C95.8591 89.6508 96.747 89.3137 97.5025 89.6533C97.525 89.6634 97.5481 89.6736 97.5719 89.6838Z" fill="#99121A"/>
<path id="fringe" d="M76.9884 98.324C79.2106 26.7417 116.171 37.832 112.107 24.1871L105.956 20.3975V16.3732L97.4579 17.2127C74.3626 22.5388 56.9597 59.4664 76.9884 98.324Z" fill="url(#paint3_linear_1_153)"/>
<path id="fringe_2" d="M138.834 53.738C125.111 47.9329 102.623 24.8618 106.729 17.7456H113.073L129.955 32.1884C136.665 41.7585 138.834 53.738 138.834 53.738Z" fill="url(#paint4_linear_1_153)"/>
<g id="ear">
<ellipse id="right ear" cx="136.325" cy="63.6459" rx="7.90979" ry="12.4847" fill="#E9CDB5"/>
<path id="Subtract" fill-rule="evenodd" clip-rule="evenodd" d="M135.039 71.7577C135.415 71.8584 135.803 71.9111 136.2 71.9111C139.686 71.9111 142.512 67.8465 142.512 62.8327C142.512 57.8188 139.686 53.7542 136.2 53.7542C135.803 53.7542 135.415 53.8069 135.039 53.9076V53.9358C137.92 54.777 140.088 58.4406 140.088 62.8327C140.088 67.2247 137.92 70.8883 135.039 71.7295V71.7577Z" fill="#D1B8A3"/>
</g>
<g id="laptop">
<rect id="Rectangle 14" x="114.296" y="163.065" width="41.2646" height="4.6235" rx="2.31175" fill="#C4C4C4"/>
<rect id="Rectangle 17" width="5.50857" height="63.4189" transform="matrix(0.932373 -0.361497 0.358729 0.933442 96.2205 108.298)" fill="#C4C4C4"/>
<rect id="Rectangle 15" x="83.631" y="101.057" width="18.0795" height="62.8017" rx="9.03976" fill="#C4C4C4"/>
<path id="Rectangle 12" d="M1.57228 114.317C-0.666907 107.823 4.15705 101.057 11.026 101.057H91.2906C96.6816 101.057 101.102 105.33 101.285 110.718L102.867 157.35C103.058 163.002 98.528 167.689 92.8722 167.689H27.1056C22.8392 167.689 19.0427 164.982 17.6519 160.948L1.57228 114.317Z" fill="#4E4B4B"/>
<path id="Polygon 2" d="M100.581 105.597L124.393 167.685H76.7684L100.581 105.597Z" fill="#4E4B4B"/>
<path id="Rectangle 18" d="M20.0045 154.022H44.1279L46.299 163.714H23.3817L20.0045 154.022Z" fill="#C4C4C4"/>
<ellipse id="Ellipse 12" cx="89.6235" cy="116.162" rx="10.1423" ry="8.29553" fill="#C4C4C4"/>
<path id="Ellipse 13" d="M65.3715 134.585C65.3715 138.231 61.5277 141.384 56.5117 141.384C51.4957 141.384 47.652 138.231 47.652 134.585C47.652 130.939 51.4957 127.787 56.5117 127.787C61.5277 127.787 65.3715 130.939 65.3715 134.585Z" stroke="black"/>
<path id="Star 1" d="M13.8101 105.561L16.0966 109.392L21.2034 108.503L17.5097 111.76L19.7962 115.591L15.2269 113.773L11.5332 117.029L12.4029 112.649L7.83354 110.831L12.9404 109.942L13.8101 105.561Z" fill="#C4C4C4"/>
</g>
<g id="nose">
<ellipse id="Ellipse 6" cx="102.839" cy="78.9852" rx="5.64985" ry="3.02659" fill="#D1B8A3"/>
<g id="Rectangle 19" filter="url(#filter0_f_1_153)">
<rect x="102.537" y="59.485" width="1.50077" height="16.2954" fill="#FDE2CB"/>
</g>
<g id="Polygon 3" filter="url(#filter1_f_1_153)">
<path d="M103.885 56.4451L108.806 76.1198L103.9 76.7258L103.885 56.4451Z" fill="#D1B8A3" fill-opacity="0.64"/>
</g>
</g>
<g id="right-eye">
<path id="Ellipse 21_2" d="M125.184 62.1921C125.184 64.3074 122.57 65.3198 118.544 65.3198C114.519 65.3198 113.273 64.8299 111.645 63.4657C111.645 61.3504 114.519 57.7909 118.544 57.7909C122.57 57.7909 125.184 60.0769 125.184 62.1921Z" fill="white" fill-opacity="0.6"/>
<path id="Ellipse 22_2" d="M121.608 61.6106C121.608 63.5591 120.183 65.055 118.524 65.055C116.865 65.055 115.44 63.5591 115.44 61.6106C115.44 59.6621 116.865 58.1661 118.524 58.1661C120.183 58.1661 121.608 59.6621 121.608 61.6106Z" fill="#879729" stroke="#2F340D"/>
<path id="Vector 17_2" d="M127.276 61.2552C124.213 57.7175 116.755 52.7277 111.421 61.07" stroke="black" stroke-opacity="0.34" stroke-linecap="round"/>
<path id="Vector 19_2" d="M124.211 60.3408C124.656 60.1673 125.741 59.9243 126.52 60.3408M124.822 61.6536C125.29 61.4272 126.492 61.0787 127.561 61.4951" stroke="black" stroke-linecap="round"/>
<ellipse id="Ellipse 23_2" cx="118.647" cy="61.5823" rx="1.92375" ry="1.95106" fill="black"/>
<ellipse id="Ellipse 24_2" cx="119.977" cy="60.4647" rx="1.0928" ry="0.833489" fill="white"/>
<path id="Vector 18_2" d="M118.719 65.4878C112.7 65.1534 111.657 63.5601 111.657 63.5601C110.458 60.5112 121.434 52.5841 125.151 62.4192C125.151 62.4192 124.305 63.9339 123.519 64.3273" stroke="#372715" stroke-linecap="round"/>
<path id="Vector 20_2" d="M129.917 56.0952C122.196 52.0319 113.263 54.7657 109.762 56.6405C108.661 56.601 109.02 55.8052 109.337 55.4122C122.966 49.3898 129.917 56.0952 129.917 56.0952Z" fill="#80582A" stroke="#80582A" stroke-linecap="round"/>
</g>
<g id="cheek" filter="url(#filter2_f_1_153)">
<path d="M115.726 80.3422L127.155 66.9102L132.573 75.1249L115.726 80.3422Z" fill="#70370E" fill-opacity="0.05"/>
</g>
<g id="cheek_2" filter="url(#filter3_f_1_153)">
<path d="M91.3652 77.1188L73.9972 74.0524L78.3435 65.224L91.3652 77.1188Z" fill="#700E0E" fill-opacity="0.05"/>
</g>
</g>
<defs>
<filter id="filter0_f_1_153" x="98.5374" y="55.485" width="9.50077" height="24.2954" filterUnits="userSpaceOnUse" color-interpolation-filters="sRGB">
<feFlood flood-opacity="0" result="BackgroundImageFix"/>
<feBlend mode="normal" in="SourceGraphic" in2="BackgroundImageFix" result="shape"/>
<feGaussianBlur stdDeviation="2" result="effect1_foregroundBlur_1_153"/>
</filter>
<filter id="filter1_f_1_153" x="99.8852" y="52.4451" width="12.9209" height="28.2807" filterUnits="userSpaceOnUse" color-interpolation-filters="sRGB">
<feFlood flood-opacity="0" result="BackgroundImageFix"/>
<feBlend mode="normal" in="SourceGraphic" in2="BackgroundImageFix" result="shape"/>
<feGaussianBlur stdDeviation="2" result="effect1_foregroundBlur_1_153"/>
</filter>
<filter id="filter2_f_1_153" x="110.726" y="61.9102" width="26.8473" height="23.4319" filterUnits="userSpaceOnUse" color-interpolation-filters="sRGB">
<feFlood flood-opacity="0" result="BackgroundImageFix"/>
<feBlend mode="normal" in="SourceGraphic" in2="BackgroundImageFix" result="shape"/>
<feGaussianBlur stdDeviation="2.5" result="effect1_foregroundBlur_1_153"/>
</filter>
<filter id="filter3_f_1_153" x="69.9972" y="61.224" width="25.3681" height="19.8949" filterUnits="userSpaceOnUse" color-interpolation-filters="sRGB">
<feFlood flood-opacity="0" result="BackgroundImageFix"/>
<feBlend mode="normal" in="SourceGraphic" in2="BackgroundImageFix" result="shape"/>
<feGaussianBlur stdDeviation="2" result="effect1_foregroundBlur_1_153"/>
</filter>
<linearGradient id="paint0_linear_1_153" x1="132.377" y1="14.7632" x2="107.713" y2="154.022" gradientUnits="userSpaceOnUse">
<stop stop-color="#473219"/>
<stop offset="0.481026" stop-color="#B8956C"/>
</linearGradient>
<linearGradient id="paint1_linear_1_153" x1="145.923" y1="105.002" x2="148.645" y2="190.559" gradientUnits="userSpaceOnUse">
<stop offset="0.469264" stop-color="#B8956C"/>
<stop offset="0.677122" stop-color="#E9CDB5"/>
</linearGradient>
<linearGradient id="paint2_linear_1_153" x1="77.0061" y1="35.7037" x2="77.0061" y2="134.769" gradientUnits="userSpaceOnUse">
<stop offset="0.239203" stop-color="#B28B5B"/>
<stop offset="0.902155" stop-color="#C3A68A"/>
</linearGradient>
<linearGradient id="paint3_linear_1_153" x1="103.646" y1="24.4125" x2="87.8679" y2="83.8261" gradientUnits="userSpaceOnUse">
<stop stop-color="#4B351C"/>
<stop offset="0.698531" stop-color="#BB9872"/>
</linearGradient>
<linearGradient id="paint4_linear_1_153" x1="111.59" y1="19.9349" x2="138.834" y2="71.7522" gradientUnits="userSpaceOnUse">
<stop stop-color="#50391F"/>
<stop offset="1" stop-color="#B18A5B"/>
</linearGradient>
</defs>
</svg>
